<?xml version="1.0" standalone="no"?>
<!DOCTYPE svg PUBLIC "-//W3C//DTD SVG 20010904//EN"
 "http://www.w3.org/TR/2001/REC-SVG-20010904/DTD/svg10.dtd">
<svg version="1.0" xmlns="http://www.w3.org/2000/svg"
 width="1292.000000pt" height="1262.000000pt" viewBox="0 0 1292.000000 1262.000000"
 preserveAspectRatio="xMidYMid meet">
<metadata>
Created by potrace 1.16, written by Peter Selinger 2001-2019
</metadata>
<g transform="translate(0.000000,1262.000000) scale(0.100000,-0.100000)"
fill="#000000" stroke="none">
<path d="M0 6310 l0 -6310 6460 0 6460 0 0 6310 0 6310 -6460 0 -6460 0 0
-6310z m5988 3933 l857 -1572 2549 -3 c2332 -3 2550 -4 2559 -19 8 -13 -432
-827 -2088 -3865 -1154 -2117 -2106 -3858 -2116 -3868 -9 -10 -23 -16 -31 -13
-7 3 -398 712 -868 1576 l-855 1570 -2549 3 c-2331 3 -2550 4 -2559 19 -8 13
425 814 2053 3800 1135 2081 2079 3813 2098 3849 43 79 61 102 80 98 8 -2 399
-710 870 -1575z"/>
<path d="M4436 10493 c-368 -676 -1293 -2373 -2056 -3773 -763 -1400 -1395
-2560 -1404 -2577 l-17 -33 2501 0 2501 0 -35 63 c-303 548 -2426 4452 -2426
4461 0 36 -17 36 1651 36 l1627 0 -831 1525 c-457 839 -834 1525 -837 1525 -3
0 -306 -552 -674 -1227z m742 666 c30 -52 73 -130 96 -174 65 -122 122 -227
203 -373 40 -73 73 -137 73 -142 0 -4 3 -10 8 -12 4 -1 20 -30 36 -63 17 -33
40 -76 51 -95 22 -36 66 -115 127 -230 19 -36 44 -81 55 -100 11 -19 42 -75
68 -125 27 -49 59 -108 71 -130 13 -22 39 -71 60 -110 20 -38 46 -85 57 -105
11 -19 36 -64 55 -100 19 -36 46 -85 60 -110 67 -118 102 -183 102 -189 0 -4
11 -22 24 -41 13 -19 26 -45 30 -57 l7 -23 -1250 0 c-688 0 -1251 2 -1251 5 0
5 75 148 110 210 13 22 50 90 83 150 33 61 70 128 82 150 12 22 37 67 55 100
33 60 48 89 130 240 24 44 54 100 68 125 104 189 141 256 180 330 25 47 87
159 137 250 51 91 110 199 132 240 61 116 234 432 250 458 8 13 20 21 26 19 7
-2 36 -46 65 -98z m-1656 -3072 c14 -23 32 -54 39 -69 7 -16 16 -28 21 -28 4
0 8 -9 8 -19 0 -11 6 -26 13 -33 6 -7 32 -52 57 -100 80 -156 135 -256 146
-270 6 -7 14 -25 18 -40 3 -16 11 -28 16 -28 6 0 10 -5 10 -11 0 -13 146 -277
166 -300 8 -8 14 -23 14 -31 0 -9 3 -18 8 -20 4 -1 18 -25 32 -53 14 -27 33
-62 42 -76 10 -14 15 -29 11 -33 -3 -3 -2 -6 4 -6 6 0 27 -35 48 -77 20 -43
40 -80 44 -83 4 -3 24 -39 44 -80 21 -41 42 -82 47 -90 5 -8 11 -22 14 -30 4
-8 16 -31 27 -50 12 -19 33 -57 47 -85 14 -27 36 -63 49 -78 13 -16 23 -35 23
-42 0 -7 6 -20 13 -27 19 -21 37 -56 37 -72 0 -8 6 -21 13 -28 12 -12 30 -45
73 -132 10 -22 28 -51 39 -65 10 -13 21 -33 22 -44 2 -10 10 -25 18 -33 8 -9
15 -22 15 -29 0 -7 6 -20 13 -27 7 -7 23 -33 35 -58 28 -57 89 -172 99 -186 8
-10 19 -28 46 -76 6 -13 20 -34 30 -47 9 -13 17 -30 17 -37 0 -7 12 -30 26
-51 14 -21 37 -63 51 -93 13 -30 31 -62 38 -70 7 -8 18 -32 26 -52 7 -21 16
-38 20 -38 4 0 9 -8 13 -17 3 -10 17 -36 30 -58 14 -22 25 -48 26 -57 0 -10 4
-18 8 -18 5 0 30 -42 56 -92 60 -117 69 -134 88 -155 8 -10 28 -43 43 -73 25
-48 54 -105 114 -218 8 -15 17 -29 21 -32 7 -5 30 -67 30 -81 0 -5 -920 -9
-2045 -9 -1953 0 -2045 1 -2045 18 0 10 6 26 14 37 7 11 37 65 65 120 29 55
56 107 61 115 5 8 11 22 14 30 4 8 16 31 28 50 11 19 37 64 56 100 20 36 44
79 54 95 10 17 27 48 38 70 11 22 40 76 65 120 25 44 53 94 61 110 8 17 32 62
54 100 21 39 51 95 65 125 15 30 34 63 42 73 9 9 13 17 9 17 -4 0 2 12 13 26
12 15 21 35 21 45 0 11 3 19 8 19 4 0 23 30 42 68 19 37 37 69 40 72 6 6 23
35 63 110 16 30 34 59 38 64 5 6 9 18 9 27 0 9 7 22 15 29 13 11 37 54 129
235 17 33 33 62 37 65 5 4 32 53 116 215 24 47 39 74 75 132 21 35 38 69 38
77 0 7 6 19 14 25 8 7 17 23 20 36 4 14 10 25 15 25 5 0 15 15 22 33 7 17 29
59 48 92 77 132 145 265 143 278 -1 4 2 7 6 7 5 0 17 19 28 43 10 23 30 60 43
82 51 80 59 94 76 135 8 21 28 55 42 71 6 8 39 68 73 134 34 66 71 136 82 155
30 50 109 199 127 238 20 43 41 40 73 -11z"/>
<path d="M4978 10975 c-3 -3 14 -43 38 -88 25 -45 54 -101 66 -124 12 -24 24
-43 27 -43 4 0 20 26 36 57 17 32 44 80 61 108 17 27 34 60 38 73 l7 22 -134
0 c-73 0 -136 -2 -139 -5z"/>
<path d="M4820 10682 c0 -4 13 -32 30 -62 16 -30 39 -75 51 -100 13 -25 30
-56 39 -70 17 -25 58 -99 129 -232 20 -38 38 -68 41 -68 3 0 19 26 35 58 17
31 33 59 38 60 4 2 7 8 7 13 0 5 21 46 46 91 26 46 62 112 81 148 20 36 46 84
59 108 13 23 24 47 24 52 0 6 -110 10 -290 10 -159 0 -290 -3 -290 -8z"/>
<path d="M4668 10382 c15 -38 127 -232 134 -232 4 0 19 24 32 53 14 28 43 85
66 125 l41 72 -140 0 c-131 0 -140 -1 -133 -18z"/>
<path d="M5290 10394 c0 -10 120 -233 128 -238 7 -4 142 222 142 238 0 3 -61
6 -135 6 -74 0 -135 -3 -135 -6z"/>
<path d="M4515 10093 c3 -16 12 -35 18 -43 15 -19 25 -37 89 -158 28 -53 56
-104 63 -112 6 -8 25 -42 42 -75 34 -65 72 -138 108 -200 25 -44 67 -122 128
-235 22 -41 54 -100 71 -130 17 -30 40 -72 51 -92 11 -21 22 -38 25 -38 3 0
32 48 65 108 32 59 91 166 130 237 79 144 160 294 183 340 8 17 23 41 32 55
18 26 89 157 146 269 18 35 37 68 43 74 6 6 11 15 11 19 0 4 -273 8 -606 8
l-606 0 7 -27z"/>
<path d="M4350 9825 c0 -4 21 -42 77 -142 14 -27 33 -60 40 -75 8 -16 18 -28
22 -28 4 0 26 37 50 83 23 45 51 96 61 112 34 54 32 55 -115 55 -74 0 -135 -2
-135 -5z"/>
<path d="M5600 9817 c0 -7 4 -17 9 -22 5 -6 28 -46 51 -90 59 -111 71 -128 80
-119 13 14 130 229 130 239 0 3 -61 5 -135 5 -104 0 -135 -3 -135 -13z"/>
<path d="M4190 9541 c0 -4 4 -11 9 -16 5 -6 35 -59 66 -120 32 -60 68 -126 79
-145 12 -19 28 -48 36 -65 8 -16 18 -32 21 -35 3 -3 20 -36 39 -73 19 -38 38
-70 42 -73 9 -6 39 41 107 171 30 55 57 105 61 110 10 14 130 245 130 251 0 2
-133 4 -295 3 -162 0 -295 -4 -295 -8z"/>
<path d="M5440 9546 c0 -7 99 -196 110 -211 4 -5 28 -48 53 -95 127 -242 125
-239 149 -208 9 13 18 28 18 34 0 6 7 17 15 24 9 7 13 15 11 18 -3 3 3 17 13
31 10 14 35 58 55 96 21 39 50 93 65 120 42 76 101 188 101 190 0 2 -133 3
-295 4 -162 1 -295 0 -295 -3z"/>
<path d="M4040 9253 c0 -5 14 -33 31 -63 17 -30 47 -84 66 -120 19 -36 36 -66
38 -68 2 -2 15 21 30 50 14 29 36 69 47 88 36 59 56 105 51 112 -6 10 -263 10
-263 1z"/>
<path d="M4672 9243 c4 -23 119 -233 128 -233 3 0 16 19 28 43 12 23 37 70 56
105 61 110 67 102 -84 102 -120 0 -131 -2 -128 -17z"/>
<path d="M5295 9238 c4 -13 13 -32 20 -43 6 -11 29 -51 50 -90 60 -111 54
-112 124 16 33 62 61 118 61 126 0 10 -29 13 -131 13 l-130 0 6 -22z"/>
<path d="M5920 9243 c0 -10 16 -45 35 -78 18 -33 46 -84 61 -113 31 -61 25
-65 94 63 67 124 70 130 70 138 0 4 -58 7 -130 7 -117 0 -130 -2 -130 -17z"/>
<path d="M3382 7863 c9 -10 31 -47 50 -83 24 -46 40 -65 54 -65 10 0 20 8 22
19 2 11 22 45 43 76 21 32 39 60 39 64 0 3 -50 6 -112 6 -105 0 -110 -1 -96
-17z"/>
<path d="M3267 7618 c10 -18 24 -39 31 -46 6 -7 12 -22 12 -32 0 -10 5 -22 10
-25 10 -6 42 -67 117 -217 30 -61 57 -74 68 -35 4 12 17 36 29 52 12 17 39 63
59 104 21 40 45 80 52 88 8 8 15 23 15 33 0 10 5 22 10 25 6 4 19 24 30 46
l20 39 -235 0 -236 0 18 -32z"/>
<path d="M3130 7400 c0 -5 3 -10 8 -10 4 0 15 -19 26 -43 10 -23 22 -49 27
-57 5 -8 13 -25 19 -37 14 -33 22 -29 50 25 13 26 34 63 47 82 13 19 23 38 23
42 0 5 -45 8 -100 8 -60 0 -100 -4 -100 -10z"/>
<path d="M3640 7402 c0 -4 11 -24 25 -44 14 -20 25 -41 25 -47 0 -13 43 -80
52 -81 4 0 24 35 44 78 21 42 41 79 46 80 4 2 8 8 8 13 0 5 -45 9 -100 9 -55
0 -100 -3 -100 -8z"/>
<path d="M3036 7103 c24 -47 50 -94 58 -102 8 -9 25 -38 39 -66 44 -89 58
-114 68 -120 5 -4 9 -15 9 -25 0 -10 6 -25 14 -32 7 -8 42 -70 77 -138 35 -69
66 -127 69 -130 3 -3 14 -23 25 -45 11 -22 28 -49 38 -60 10 -10 16 -24 13
-30 -2 -6 5 -21 15 -34 l19 -23 20 23 c10 13 19 30 20 37 0 6 8 20 18 30 9 9
36 53 58 97 94 181 137 260 144 265 4 3 11 16 15 30 4 14 12 32 19 40 11 16
29 45 46 80 6 11 15 30 22 43 6 12 34 65 61 117 27 52 53 99 58 104 5 6 9 14
9 18 0 4 -220 8 -489 8 l-489 0 44 -87z"/>
<path d="M2902 6883 c17 -32 39 -73 50 -91 l21 -33 39 73 c22 40 44 77 49 83
20 21 5 25 -90 25 l-99 0 30 -57z"/>
<path d="M3927 6873 c20 -38 44 -78 54 -91 l18 -23 27 48 c16 26 32 50 36 51
5 2 5 8 2 13 -3 6 1 18 8 27 36 41 34 42 -76 42 l-104 0 35 -67z"/>
<path d="M2764 6668 c74 -138 103 -189 138 -245 21 -34 38 -68 38 -75 0 -7 9
-24 20 -38 16 -20 20 -22 20 -7 0 9 4 17 9 17 5 0 14 12 20 28 6 15 15 34 20
42 5 8 14 26 20 40 14 30 29 56 57 95 11 17 29 48 39 70 9 22 24 48 33 58 8 9
11 17 7 17 -4 0 0 9 10 20 18 20 17 20 -218 20 l-235 0 22 -42z"/>
<path d="M3770 6702 c0 -4 5 -13 12 -20 7 -7 8 -12 4 -12 -5 0 -3 -6 3 -13 6
-8 25 -40 42 -73 17 -32 38 -67 47 -77 8 -9 12 -20 9 -23 -4 -4 1 -19 11 -33
32 -49 42 -66 51 -88 6 -11 15 -24 21 -28 6 -4 15 -17 20 -29 7 -19 10 -17 29
24 12 25 31 61 43 80 46 78 158 287 158 296 0 2 -101 4 -225 4 -124 0 -225 -4
-225 -8z"/>
<path d="M2620 6459 c0 -6 10 -25 23 -42 35 -50 46 -70 58 -99 14 -36 24 -35
40 5 7 17 26 54 41 80 15 26 28 52 28 57 0 6 -41 10 -95 10 -61 0 -95 -4 -95
-11z"/>
<path d="M3140 6463 c0 -12 84 -173 90 -173 6 0 50 82 50 93 0 5 9 20 20 34
37 47 29 53 -70 53 -49 0 -90 -3 -90 -7z"/>
<path d="M3650 6458 c0 -7 9 -24 20 -38 11 -14 20 -29 20 -35 0 -15 44 -95 52
-95 4 0 10 11 14 25 3 13 12 29 20 36 8 6 14 19 14 28 0 9 9 27 20 41 35 45
28 50 -70 50 -65 0 -90 -3 -90 -12z"/>
<path d="M4160 6463 c0 -14 85 -173 92 -173 5 0 8 8 8 19 0 10 7 24 15 31 12
10 65 113 65 126 0 2 -40 4 -90 4 -49 0 -90 -3 -90 -7z"/>
<path d="M2488 6233 c6 -2 12 -10 12 -17 0 -7 15 -34 32 -62 18 -27 33 -53 33
-59 1 -5 13 -29 28 -53 15 -23 37 -60 48 -82 12 -22 25 -40 31 -40 5 0 7 -4 3
-9 -3 -5 8 -31 24 -58 16 -26 41 -70 55 -98 15 -27 37 -68 51 -90 14 -22 28
-47 31 -55 17 -42 50 -106 62 -118 6 -7 12 -20 12 -27 0 -7 6 -20 13 -27 7 -7
21 -32 31 -56 11 -23 25 -47 33 -53 7 -6 13 -20 13 -30 0 -9 6 -24 13 -31 7
-7 33 -49 57 -93 23 -44 54 -100 69 -124 39 -69 90 -163 103 -193 7 -16 16
-28 20 -28 4 0 8 -7 8 -14 0 -8 17 -43 37 -78 20 -35 37 -65 36 -68 0 -3 8
-17 18 -32 10 -14 19 -30 19 -36 0 -5 7 -15 15 -22 8 -7 15 -20 15 -30 0 -9 9
-29 21 -44 11 -14 18 -26 14 -26 -4 0 0 -7 8 -15 9 -8 18 -20 20 -27 4 -9 12
-5 26 12 11 14 18 27 15 29 -2 3 4 14 15 25 18 20 50 77 154 276 27 52 56 102
63 111 8 8 14 19 14 23 0 12 33 80 41 86 4 3 13 17 19 30 5 14 23 48 38 75 63
113 72 130 72 142 0 7 4 13 9 13 5 0 13 10 16 23 4 12 15 31 24 42 10 11 35
54 56 95 22 41 56 107 77 145 21 39 41 77 45 85 3 8 15 26 25 39 10 13 18 32
18 42 0 9 4 19 8 21 9 3 11 5 83 145 47 90 77 145 110 198 11 17 24 41 31 55
7 14 15 27 18 30 3 3 11 17 17 33 l13 27 -1003 -1 c-551 0 -996 -3 -989 -6z"/>
<path d="M2370 5992 c0 -10 5 -23 11 -29 13 -13 30 -41 59 -101 12 -24 23 -42
25 -40 6 6 95 178 95 183 0 3 -43 5 -95 5 -85 0 -95 -2 -95 -18z"/>
<path d="M4410 5997 c0 -8 14 -33 30 -55 17 -23 30 -45 30 -50 0 -18 26 -62
35 -59 6 2 17 16 25 33 9 16 28 48 43 71 44 69 41 73 -68 73 -73 0 -95 -3 -95
-13z"/>
<path d="M2230 5773 c0 -3 6 -14 14 -22 8 -9 26 -40 41 -69 15 -29 31 -55 36
-58 5 -3 9 -16 9 -30 0 -13 4 -24 9 -24 5 0 16 -16 25 -35 9 -19 21 -37 26
-40 6 -3 10 -15 10 -25 0 -10 6 -25 14 -32 7 -8 16 -23 20 -35 4 -12 13 -27
21 -33 12 -10 16 -8 24 11 5 13 21 41 35 62 14 21 26 43 26 50 1 7 12 30 25
52 14 22 31 54 39 70 9 17 26 48 40 70 14 22 32 52 40 68 l14 27 -234 0 c-129
0 -234 -3 -234 -7z"/>
<path d="M4306 5713 c76 -147 160 -293 183 -320 6 -7 11 -18 11 -25 1 -16 39
33 40 50 0 6 5 12 10 12 6 0 10 5 10 11 0 7 18 43 40 81 22 39 40 76 40 84 0
8 4 14 9 14 5 0 13 10 17 23 3 12 12 29 19 37 7 8 16 26 20 40 4 14 14 33 23
43 14 16 3 17 -221 17 l-236 0 35 -67z"/>
<path d="M2112 5533 c55 -119 81 -163 98 -163 13 0 22 9 26 25 3 14 10 25 14
25 4 0 11 12 15 27 3 15 15 39 26 54 10 15 19 30 19 33 0 3 -45 6 -101 6 -55
0 -99 -3 -97 -7z"/>
<path d="M2620 5526 c0 -8 11 -27 24 -43 13 -15 36 -53 51 -83 l28 -55 18 40
c10 22 23 47 27 55 24 40 42 79 42 89 0 7 -33 11 -95 11 -76 0 -95 -3 -95 -14z"/>
<path d="M4150 5537 c0 -2 13 -27 30 -57 16 -30 35 -68 42 -83 16 -36 34 -31
61 18 12 22 28 46 35 53 6 7 12 19 12 27 0 7 3 20 6 29 5 14 -6 16 -90 16 -53
0 -96 -1 -96 -3z"/>
<path d="M4667 5534 c-4 -4 2 -19 13 -34 11 -16 20 -34 20 -42 0 -8 5 -19 11
-25 6 -6 16 -21 23 -34 18 -36 30 -33 56 13 13 24 26 45 29 48 12 10 31 50 31
65 0 12 -16 15 -88 15 -49 0 -92 -3 -95 -6z"/>
<path d="M1980 5305 c0 -5 59 -118 67 -130 5 -6 17 -28 27 -50 11 -22 29 -50
39 -62 11 -12 16 -26 13 -31 -3 -6 1 -17 9 -25 8 -9 20 -26 25 -39 6 -13 19
-36 30 -53 11 -16 26 -43 34 -60 25 -48 54 -97 66 -109 5 -5 10 -17 10 -26 0
-10 9 -27 20 -40 11 -13 20 -29 20 -35 0 -7 7 -18 15 -25 8 -7 13 -16 10 -20
-3 -4 1 -13 9 -19 8 -7 17 -24 21 -39 4 -15 12 -34 20 -42 7 -8 22 -33 34 -55
16 -30 21 -34 21 -18 0 12 6 28 13 35 15 17 25 35 83 146 25 48 52 94 60 103
8 8 14 21 14 28 0 7 8 25 18 39 33 51 42 67 53 92 5 13 13 27 17 30 7 5 29 46
93 172 21 42 43 79 48 82 5 4 12 20 16 36 4 17 11 30 16 30 5 0 9 9 9 19 0 11
4 23 10 26 5 3 15 15 20 26 11 19 4 19 -475 18 -267 0 -485 -2 -485 -4z"/>
<path d="M4020 5302 c0 -5 9 -17 20 -27 11 -10 20 -28 20 -40 0 -11 5 -26 11
-32 14 -14 23 -29 77 -134 24 -46 50 -91 58 -100 8 -8 14 -22 14 -31 0 -8 9
-25 20 -38 11 -13 20 -28 20 -35 0 -6 15 -37 34 -68 19 -31 32 -57 29 -57 -3
0 1 -8 10 -17 8 -10 31 -49 50 -88 20 -38 47 -85 61 -104 14 -19 26 -41 26
-48 0 -7 4 -13 9 -13 5 0 12 -12 15 -26 7 -26 8 -26 42 25 18 29 34 58 34 66
0 7 9 24 20 37 10 14 16 28 13 32 -3 3 -1 6 5 6 6 0 16 16 22 35 6 19 16 35
21 35 5 0 9 4 9 9 0 5 28 62 63 126 34 64 76 143 93 175 16 33 38 67 47 77 9
10 26 40 38 67 11 26 36 74 55 106 19 32 34 61 34 63 0 3 -218 6 -485 7 -273
0 -485 -3 -485 -8z"/>
<path d="M1953 5072 l-101 -3 45 -87 c53 -100 54 -101 60 -84 3 7 10 18 17 25
7 7 19 29 25 50 7 20 17 37 22 37 5 0 9 5 9 12 0 6 7 20 17 30 9 10 14 19 12
21 -2 1 -50 1 -106 -1z"/>
<path d="M2943 5072 c-40 -2 -73 -5 -73 -7 0 -2 11 -21 25 -42 14 -20 36 -59
48 -85 12 -26 25 -48 28 -48 3 0 23 34 44 75 20 41 41 78 46 81 17 10 9 22
-18 25 -16 2 -61 3 -100 1z"/>
<path d="M3934 5072 l-42 -3 40 -72 c23 -40 46 -82 52 -93 9 -20 15 -14 58 64
26 47 48 89 48 93 0 8 -96 15 -156 11z"/>
<path d="M4918 5069 c-5 -3 -2 -11 7 -19 8 -7 15 -19 15 -26 0 -8 4 -14 9 -14
5 0 12 -11 15 -24 7 -29 48 -95 58 -96 4 0 11 12 14 28 4 15 12 34 19 42 6 8
24 36 38 62 l27 47 -96 3 c-53 2 -100 0 -106 -3z"/>
<path d="M1730 4827 c0 -8 14 -33 30 -55 17 -23 30 -48 30 -56 0 -7 8 -24 18
-37 24 -34 41 -62 48 -79 3 -8 17 -35 31 -60 13 -25 34 -65 45 -90 l21 -45 9
33 c5 17 12 32 16 32 4 0 18 21 31 48 29 60 38 76 64 121 33 58 97 185 97 194
0 4 -99 7 -220 7 -178 0 -220 -3 -220 -13z"/>
<path d="M2751 4833 c0 -5 22 -48 49 -98 27 -49 66 -124 87 -165 20 -41 39
-77 43 -80 3 -3 15 -20 27 -39 21 -34 21 -34 28 -10 4 13 10 26 14 29 3 3 16
26 29 52 13 26 27 50 33 53 5 4 9 13 9 22 0 9 8 26 19 37 10 12 29 41 42 66
13 25 28 51 33 59 6 7 16 29 22 47 l12 34 -224 0 c-123 0 -224 -3 -223 -7z"/>
<path d="M3782 4808 c6 -18 24 -53 39 -78 15 -25 30 -55 34 -67 3 -13 10 -23
15 -23 5 0 12 -10 16 -22 3 -13 12 -30 18 -38 7 -8 21 -35 31 -60 11 -25 28
-54 37 -64 10 -11 18 -24 18 -30 0 -15 26 24 61 91 16 32 39 74 51 93 27 46
103 190 111 213 6 16 -8 17 -218 17 l-224 0 11 -32z"/>
<path d="M4800 4826 c0 -17 58 -134 78 -158 16 -19 71 -121 97 -180 10 -21 21
-38 26 -38 5 0 9 -8 9 -17 0 -21 49 53 86 130 14 29 33 66 43 82 25 39 101
183 101 190 0 3 -99 5 -220 5 -183 0 -220 -2 -220 -14z"/>
<path d="M1625 4543 c51 -102 70 -126 82 -111 6 7 14 24 18 37 6 20 41 79 63
106 27 34 25 35 -87 35 l-110 0 34 -67z"/>
<path d="M2106 4595 c4 -8 9 -15 13 -15 4 0 13 -17 20 -37 19 -54 61 -124 71
-118 12 7 60 95 60 109 0 7 8 21 18 32 35 40 28 44 -83 44 -89 0 -104 -2 -99
-15z"/>
<path d="M2620 4596 c0 -7 9 -25 21 -40 11 -14 33 -51 49 -82 l28 -57 21 34
c11 19 25 39 30 46 6 7 11 21 11 31 0 11 6 25 14 31 8 6 16 21 19 31 5 19 0
20 -94 20 -77 0 -99 -3 -99 -14z"/>
<path d="M3130 4604 c0 -4 18 -38 40 -76 22 -39 40 -76 40 -85 0 -48 58 28
108 140 l12 27 -100 0 c-55 0 -100 -3 -100 -6z"/>
<path d="M3648 4593 c62 -129 88 -172 98 -160 12 13 61 103 82 150 l12 27
-101 0 c-91 0 -99 -1 -91 -17z"/>
<path d="M4163 4583 c35 -78 86 -171 91 -166 3 4 6 15 6 25 0 10 4 18 8 18 4
0 15 15 23 33 27 55 54 102 64 109 6 4 -38 8 -97 8 l-108 0 13 -27z"/>
<path d="M4663 4598 c1 -7 5 -15 8 -18 3 -3 23 -40 44 -82 37 -78 55 -96 55
-58 0 11 4 20 9 20 5 0 14 12 20 28 6 15 22 46 36 70 14 23 25 45 25 47 0 3
-45 5 -100 5 -75 0 -99 -3 -97 -12z"/>
<path d="M5166 4598 c4 -7 16 -23 27 -35 10 -12 16 -26 13 -31 -3 -5 3 -19 13
-31 10 -12 24 -35 31 -52 l13 -31 23 29 c13 15 23 34 24 41 0 7 11 28 24 45
13 18 29 42 35 55 l12 22 -111 0 c-86 0 -110 -3 -104 -12z"/>
<path d="M3580 8605 c0 -9 2432 -4470 2444 -4483 9 -9 342 -12 1624 -10 l1612
3 -1215 2230 c-668 1227 -1219 2238 -1225 2248 -10 16 -98 17 -1625 17 -888 0
-1615 -2 -1615 -5z"/>
<path d="M6883 8603 c6 -11 2396 -4393 2432 -4461 52 -96 229 -86 -1622 -92
l-1630 -5 297 -545 c163 -300 538 -987 832 -1528 l536 -982 562 1032 c310 568
1231 2259 2048 3758 816 1499 1498 2749 1514 2778 l29 52 -2501 0 c-1376 0
-2499 -3 -2497 -7z m4547 -392 c0 -10 -18 -49 -40 -85 -22 -37 -52 -90 -66
-119 -13 -28 -34 -65 -44 -82 -19 -28 -23 -37 -35 -67 -2 -7 -16 -31 -29 -53
-14 -22 -51 -92 -84 -155 -32 -63 -69 -133 -82 -155 -13 -22 -36 -64 -52 -94
-15 -30 -33 -61 -40 -70 -13 -16 -28 -41 -50 -83 -6 -13 -15 -30 -19 -38 -5
-8 -22 -41 -38 -73 -16 -31 -34 -64 -41 -72 -7 -8 -9 -15 -5 -15 3 0 -3 -12
-14 -26 -12 -15 -21 -32 -21 -40 0 -7 -3 -14 -7 -16 -5 -1 -24 -33 -43 -70
-19 -38 -39 -68 -43 -68 -5 0 -7 -6 -4 -12 2 -7 -3 -24 -12 -38 -10 -14 -28
-47 -42 -75 -13 -27 -30 -56 -37 -63 -7 -8 -10 -17 -7 -21 2 -5 -4 -16 -15
-26 -11 -10 -20 -23 -20 -28 0 -6 -11 -25 -25 -43 -14 -18 -25 -37 -25 -43 0
-5 -20 -44 -45 -85 -25 -42 -45 -83 -45 -90 0 -8 -4 -16 -9 -18 -5 -1 -32 -46
-59 -98 -27 -52 -69 -134 -94 -181 -26 -47 -52 -97 -59 -110 -6 -13 -16 -31
-21 -39 -4 -8 -13 -26 -19 -40 -5 -13 -14 -27 -18 -30 -4 -3 -25 -36 -46 -75
-21 -38 -46 -81 -55 -95 -10 -14 -30 -50 -45 -80 -14 -30 -39 -76 -55 -102
-15 -25 -26 -49 -22 -53 4 -3 2 -9 -4 -13 -6 -4 -27 -38 -48 -76 -20 -38 -41
-75 -47 -82 -6 -8 -8 -14 -4 -14 5 0 1 -8 -7 -17 -8 -10 -25 -40 -38 -68 -13
-27 -29 -57 -36 -65 -7 -8 -31 -51 -54 -95 -22 -44 -54 -100 -70 -125 -16 -25
-32 -52 -36 -60 -3 -8 -10 -24 -17 -35 -6 -11 -17 -32 -24 -47 -8 -15 -18 -30
-24 -33 -5 -4 -9 -12 -9 -20 0 -25 -75 -145 -91 -145 -9 0 -29 28 -50 68 -18
37 -37 69 -41 70 -5 2 -8 10 -8 17 0 8 -6 20 -13 27 -7 7 -21 33 -32 58 -10
25 -27 56 -37 69 -10 13 -18 29 -18 36 0 7 -7 18 -16 25 -8 8 -33 50 -55 94
-23 45 -45 86 -50 93 -6 6 -27 44 -48 85 -57 113 -123 232 -131 238 -4 3 -10
17 -14 33 -3 15 -11 27 -16 27 -6 0 -10 9 -10 19 0 11 -3 21 -7 23 -5 2 -20
28 -36 58 -37 74 -62 118 -80 138 -7 9 -27 45 -42 80 -16 34 -32 62 -36 62 -3
0 -9 8 -13 18 -3 9 -10 24 -15 32 -5 8 -19 35 -31 60 -12 25 -44 86 -71 135
-27 50 -56 107 -65 128 -9 20 -20 37 -24 37 -5 0 -14 16 -20 35 -6 19 -16 35
-21 35 -5 0 -9 6 -9 13 0 15 -30 79 -40 87 -4 3 -28 46 -54 95 -26 50 -55 98
-64 108 -9 10 -17 25 -18 34 -2 9 -7 19 -12 22 -5 3 -15 23 -21 43 -7 20 -15
38 -19 40 -6 3 -27 40 -104 188 -12 25 -26 47 -30 48 -5 2 -8 9 -8 16 0 8 -9
25 -21 40 -11 14 -17 26 -13 26 4 0 0 8 -8 18 -9 9 -19 28 -23 41 -4 12 -18
39 -32 60 -13 20 -34 56 -45 81 -11 25 -30 59 -42 75 -12 17 -28 45 -35 63 -8
17 -17 32 -22 32 -5 0 -9 9 -9 19 0 11 -4 22 -9 26 -6 3 -20 27 -33 53 -13 26
-25 49 -28 52 -3 3 -27 48 -53 100 -27 52 -57 109 -67 125 -19 30 -55 96 -117
215 -47 89 -74 134 -84 141 -6 3 -12 22 -16 42 l-6 37 2042 0 c1998 0 2041 0
2041 -19z m-2470 -4464 c0 -8 -21 -51 -46 -98 -25 -46 -66 -122 -91 -169 -25
-47 -55 -103 -68 -125 -12 -22 -37 -67 -55 -100 -18 -33 -46 -85 -63 -115 -16
-30 -40 -73 -52 -95 -12 -22 -43 -80 -70 -130 -73 -136 -96 -179 -105 -190 -7
-10 -58 -104 -143 -265 -28 -52 -61 -112 -74 -132 -13 -21 -23 -40 -23 -42 0
-2 -17 -35 -39 -73 -21 -37 -56 -102 -78 -143 -22 -41 -62 -113 -88 -160 -26
-47 -70 -128 -98 -180 -27 -52 -60 -111 -71 -130 -12 -19 -32 -56 -45 -82 -25
-50 -44 -61 -55 -30 -3 9 -26 53 -50 97 -25 44 -61 112 -82 150 -20 39 -45 82
-55 97 -11 14 -19 29 -19 33 0 3 -30 61 -67 128 -80 143 -103 186 -135 247
-24 44 -68 126 -123 225 -39 71 -93 170 -130 240 -39 72 -74 136 -117 213 -53
97 -63 115 -100 182 -45 81 -89 163 -141 260 -22 41 -54 100 -72 130 -50 84
-135 248 -135 260 0 7 388 10 1245 10 1028 0 1245 -2 1245 -13z"/>
<path d="M7583 8163 c-13 -19 -23 -38 -23 -43 0 -5 -14 -31 -30 -57 l-31 -48
56 -3 c31 -2 79 -2 106 0 l51 3 -23 29 c-13 17 -24 35 -25 40 -1 6 -15 34 -31
62 l-28 51 -22 -34z"/>
<path d="M7834 8153 c-30 -47 -66 -113 -78 -143 -4 -8 -15 -28 -26 -45 -10
-16 -37 -65 -59 -107 l-41 -78 226 0 c124 0 223 3 221 8 -2 4 -21 41 -41 82
-20 41 -55 107 -76 145 -45 81 -70 134 -70 146 0 5 -4 9 -9 9 -5 0 -11 7 -13
15 -2 10 -14 -2 -34 -32z"/>
<path d="M8103 8184 c-4 -10 -13 -25 -20 -32 -7 -7 -13 -20 -13 -29 0 -8 -9
-27 -20 -43 -11 -15 -17 -30 -13 -34 3 -3 2 -6 -4 -6 -6 0 -13 -7 -17 -15 -4
-13 10 -15 94 -15 106 0 113 4 78 44 -10 11 -18 25 -18 31 0 11 -46 103 -56
114 -2 2 -7 -5 -11 -15z"/>
<path d="M8345 8153 c-16 -27 -34 -59 -39 -73 -5 -13 -22 -42 -38 -64 -15 -21
-28 -45 -28 -52 0 -7 -6 -19 -13 -26 -12 -12 -35 -53 -109 -198 -30 -58 -41
-77 -71 -122 -10 -15 -16 -32 -13 -37 3 -5 -1 -15 -10 -22 -8 -7 -35 -53 -60
-102 -24 -49 -51 -98 -59 -110 -8 -12 -15 -27 -15 -33 0 -9 123 -12 485 -13
280 -1 485 2 485 7 0 5 -9 17 -20 27 -11 10 -20 28 -20 40 0 11 -5 26 -11 32
-13 13 -30 42 -59 98 -11 22 -36 65 -55 95 -18 30 -52 91 -75 135 -22 44 -49
95 -60 113 -11 17 -18 32 -15 32 4 0 -36 64 -53 85 -5 6 -12 22 -15 36 -4 14
-20 45 -37 70 -16 24 -30 52 -30 62 0 9 -4 17 -9 17 -5 0 -13 11 -18 25 -8 25
-9 24 -38 -22z"/>
<path d="M8614 8185 c-5 -11 -14 -26 -21 -33 -7 -7 -13 -20 -13 -28 0 -15 -48
-94 -65 -106 -5 -4 38 -8 97 -8 l108 0 -23 47 c-12 26 -34 70 -49 97 -23 43
-28 48 -34 31z"/>
<path d="M8857 8154 c-15 -25 -34 -60 -42 -77 -14 -31 -21 -42 -56 -97 -9 -14
-37 -64 -63 -112 l-46 -88 224 0 224 0 -12 33 c-12 34 -75 149 -86 157 -4 3
-11 16 -15 30 -4 14 -12 30 -17 37 -16 20 -48 87 -48 100 0 7 -4 13 -9 13 -5
0 -13 11 -18 25 -8 25 -9 24 -36 -21z"/>
<path d="M9886 8176 c-3 -14 -11 -26 -16 -26 -6 0 -10 -7 -10 -16 0 -15 -28
-73 -41 -84 -6 -5 -16 -24 -67 -124 -17 -36 -37 -68 -42 -71 -6 -3 -10 -15
-10 -25 0 -10 -7 -26 -16 -34 -14 -15 6 -16 215 -16 l231 0 -20 38 c-12 20
-36 64 -55 97 -19 33 -44 79 -56 103 -12 23 -25 45 -30 48 -5 3 -9 14 -9 24 0
10 -6 25 -13 32 -7 7 -22 28 -33 47 l-21 33 -7 -26z"/>
<path d="M10396 8175 c-4 -14 -11 -25 -16 -25 -6 0 -10 -8 -10 -17 0 -10 -9
-29 -20 -43 -11 -14 -20 -29 -20 -35 0 -5 -9 -21 -20 -35 -11 -14 -20 -31 -20
-38 0 -7 -12 -31 -27 -55 -15 -23 -28 -44 -28 -47 -2 -9 -45 -94 -69 -135 -13
-22 -34 -59 -46 -82 -12 -23 -32 -58 -45 -77 -13 -19 -33 -54 -45 -78 -35 -72
-53 -103 -62 -106 -4 -2 -8 -14 -8 -27 0 -13 -4 -27 -10 -30 -5 -3 -15 -15
-20 -26 -11 -19 -4 -19 475 -18 300 0 485 4 485 10 0 13 -62 123 -72 127 -4 2
-8 10 -8 18 0 18 -38 90 -55 104 -8 6 -12 17 -9 24 3 8 -2 20 -10 29 -9 9 -21
26 -26 39 -6 13 -27 52 -46 88 -20 36 -43 77 -51 92 -8 15 -18 30 -24 33 -5 4
-9 15 -9 25 0 10 -7 25 -15 34 -8 8 -20 25 -25 38 -14 29 -33 62 -47 79 -6 8
-14 24 -18 37 -3 12 -21 45 -40 73 -31 48 -33 49 -39 24z"/>
<path d="M10899 8167 c-40 -83 -133 -254 -145 -268 -8 -8 -14 -22 -14 -30 0
-8 -6 -23 -13 -34 -39 -57 -47 -55 198 -55 l225 0 -41 78 c-22 42 -49 91 -60
107 -10 17 -21 37 -25 45 -10 25 -47 93 -69 126 -11 17 -24 39 -30 47 -8 14
-12 11 -26 -16z"/>
<path d="M11135 8120 c-21 -44 -42 -80 -46 -80 -4 0 -9 -7 -13 -15 -5 -13 10
-15 99 -15 l105 0 -39 74 c-68 131 -63 129 -106 36z"/>
<path d="M9077 8100 l-46 -90 99 0 c64 0 100 4 100 11 0 19 -88 169 -100 169
-4 0 -28 -40 -53 -90z"/>
<path d="M9372 8165 c-12 -14 -19 -25 -16 -25 4 0 2 -6 -3 -12 -6 -7 -32 -53
-58 -103 -96 -179 -157 -290 -167 -302 -6 -7 -27 -47 -48 -88 -21 -41 -42 -81
-48 -88 -5 -6 -29 -50 -53 -97 -24 -47 -49 -91 -56 -98 -7 -7 -13 -22 -13 -32
0 -10 -4 -21 -9 -24 -12 -8 -51 -84 -51 -100 0 -8 -4 -16 -8 -18 -10 -4 -92
-147 -92 -161 0 -6 -7 -19 -17 -29 -17 -19 -32 -43 -55 -88 -7 -14 -18 -31
-25 -38 -7 -7 -13 -21 -13 -29 0 -9 -6 -24 -14 -32 -7 -9 -23 -35 -35 -58 -52
-104 -65 -128 -71 -133 -7 -6 -38 -70 -41 -85 -1 -5 -10 -21 -20 -34 -11 -13
-19 -30 -19 -37 0 -8 -4 -14 -8 -14 -4 0 -15 -16 -24 -35 l-16 -35 1002 1
c550 0 995 3 989 6 -7 2 -13 13 -13 23 0 10 -15 41 -34 69 -19 28 -32 51 -29
51 3 0 0 7 -7 15 -7 9 -27 44 -44 78 -18 34 -36 69 -41 77 -5 8 -10 17 -10 20
-2 12 -46 89 -54 94 -5 4 -12 20 -16 36 -4 17 -11 30 -16 30 -5 0 -9 5 -9 11
0 6 -10 25 -22 42 -27 37 -45 66 -54 87 -20 48 -51 106 -61 117 -6 7 -15 22
-18 33 -3 11 -10 20 -14 20 -5 0 -11 12 -14 28 -3 15 -17 44 -31 65 -14 21
-26 44 -26 52 0 7 -6 20 -14 28 -8 8 -39 61 -68 118 -30 57 -59 113 -65 124
-7 11 -14 27 -18 35 -3 8 -17 33 -30 55 -14 22 -32 55 -40 73 -8 17 -20 32
-25 32 -6 0 -10 7 -10 15 0 17 -58 117 -74 127 -6 4 -8 8 -3 8 4 0 -5 23 -20
51 -70 129 -80 149 -74 149 3 0 1 4 -5 8 -6 4 -15 15 -20 25 -9 16 -12 15 -32
-8z"/>
<path d="M9613 8143 c-46 -77 -68 -122 -61 -128 3 -3 49 -4 101 -3 l96 3 -39
67 c-21 36 -40 74 -42 84 -6 33 -26 25 -55 -23z"/>
<path d="M10139 8168 c-6 -12 -27 -51 -46 -87 l-34 -66 50 -3 c28 -2 74 -2
101 0 l51 3 -29 45 c-16 25 -32 58 -36 73 -3 15 -11 27 -16 27 -6 0 -10 7 -10
15 0 22 -18 18 -31 -7z"/>
<path d="M10636 8144 c-14 -26 -26 -52 -26 -58 0 -7 -8 -21 -17 -32 -36 -40
-29 -44 77 -44 84 0 98 2 94 15 -4 8 -10 15 -15 15 -5 0 -8 3 -7 8 3 11 -64
142 -73 142 -4 0 -19 -21 -33 -46z"/>
<path d="M8858 7692 c-9 -20 -31 -62 -48 -92 l-30 -55 96 -3 c53 -1 99 0 102
3 3 2 -1 13 -9 22 -8 10 -30 50 -49 90 -19 40 -37 72 -40 72 -3 1 -13 -16 -22
-37z"/>
<path d="M7843 7708 c-6 -7 -13 -20 -16 -28 -4 -8 -23 -43 -42 -77 l-34 -63
111 0 c105 0 110 1 97 18 -8 9 -21 31 -29 47 -21 45 -64 114 -71 115 -4 0 -11
-6 -16 -12z"/>
<path d="M9863 7664 c-18 -31 -33 -61 -33 -69 0 -7 -7 -18 -15 -25 -29 -24
-14 -30 85 -30 80 0 100 3 100 14 0 8 -4 17 -10 21 -5 3 -26 37 -47 75 -21 39
-40 70 -43 70 -3 0 -20 -25 -37 -56z"/>
<path d="M10910 7711 c0 -5 -6 -16 -13 -23 -7 -7 -24 -35 -37 -63 -12 -27 -30
-58 -38 -67 -14 -17 -9 -18 98 -18 l112 0 -14 23 c-8 12 -32 52 -52 90 -34 60
-56 83 -56 58z"/>
<path d="M10137 7233 c-9 -21 -20 -45 -25 -53 -62 -104 -60 -110 44 -108 100
1 109 10 71 66 -14 20 -35 58 -47 85 -12 26 -23 47 -25 47 -1 0 -9 -17 -18
-37z"/>
<path d="M8358 7238 c-8 -13 -18 -30 -21 -38 -4 -8 -17 -32 -30 -52 -57 -96
-77 -131 -77 -139 0 -5 -4 -9 -9 -9 -5 0 -12 -13 -16 -29 -3 -16 -13 -35 -21
-42 -8 -6 -14 -17 -14 -24 0 -7 -9 -24 -21 -39 l-20 -26 235 0 235 0 -37 71
c-20 38 -43 82 -51 97 -8 15 -17 29 -20 32 -4 3 -15 25 -26 50 -10 25 -24 52
-31 60 -6 8 -23 36 -37 63 -24 47 -25 47 -39 25z"/>
<path d="M10396 7253 c-3 -3 -6 -13 -6 -21 0 -8 -12 -33 -28 -56 -15 -22 -36
-61 -47 -86 -10 -25 -25 -52 -32 -61 -7 -8 -13 -20 -13 -26 0 -5 -9 -20 -20
-33 -11 -13 -20 -31 -20 -41 0 -10 -4 -20 -9 -24 -6 -3 -16 -19 -25 -35 l-14
-30 235 0 c224 0 235 1 221 18 -9 9 -37 58 -63 107 -26 50 -53 96 -59 104 -13
17 -33 52 -41 71 -4 8 -11 22 -16 30 -5 8 -15 29 -23 46 -15 34 -29 47 -40 37z"/>
<path d="M8080 7203 c-12 -26 -25 -50 -29 -53 -11 -9 -31 -49 -31 -64 0 -11
19 -14 89 -15 50 -1 93 3 96 9 3 5 -2 22 -12 37 -10 15 -29 49 -43 77 -14 27
-30 51 -36 53 -6 2 -22 -18 -34 -44z"/>
<path d="M8589 7203 c-12 -27 -26 -50 -30 -53 -12 -8 -30 -61 -24 -70 7 -11
173 -11 180 0 2 4 -9 31 -26 61 -16 30 -35 66 -41 82 -18 39 -33 34 -59 -20z"/>
<path d="M10630 7198 c-13 -29 -32 -65 -42 -80 -10 -14 -18 -31 -18 -36 0 -6
38 -11 95 -11 76 -1 95 2 95 13 0 8 -5 18 -10 21 -6 4 -8 10 -5 15 3 5 0 12
-6 16 -6 3 -22 31 -35 60 -13 30 -29 54 -37 54 -7 0 -23 -24 -37 -52z"/>
<path d="M8356 6768 c-9 -12 -16 -26 -16 -30 0 -5 -16 -31 -35 -58 -19 -27
-35 -54 -35 -60 0 -6 39 -10 100 -10 l100 0 -45 87 c-25 47 -47 88 -49 90 -2
2 -11 -6 -20 -19z"/>
<path d="M10356 6701 l-46 -91 95 0 c87 0 95 2 95 19 0 11 -5 23 -11 26 -5 4
-15 17 -20 28 -11 27 -48 89 -59 100 -4 5 -28 -33 -54 -82z"/>
<path d="M8610 6306 c0 -13 -7 -29 -15 -36 -15 -12 -65 -108 -65 -123 0 -4 41
-7 90 -7 62 0 90 4 90 12 0 17 -84 178 -92 178 -5 0 -8 -11 -8 -24z"/>
<path d="M8867 6307 c-9 -14 -17 -33 -17 -41 0 -8 -4 -17 -9 -21 -6 -3 -16
-18 -24 -33 -30 -59 -82 -150 -114 -199 -18 -29 -33 -58 -33 -66 0 -7 -5 -18
-12 -25 -9 -9 -9 -12 3 -12 103 -4 432 -1 436 4 3 3 0 12 -7 21 -7 8 -9 15 -5
15 5 0 1 8 -7 18 -8 9 -27 42 -42 72 -16 30 -34 62 -41 70 -8 8 -14 20 -15 25
-3 20 -57 122 -77 146 -6 8 -12 23 -14 33 -4 18 -6 17 -22 -7z"/>
<path d="M9115 6300 c-9 -19 -29 -57 -45 -85 -15 -27 -29 -56 -29 -62 -1 -16
174 -18 184 -3 3 6 -3 23 -14 39 -12 16 -21 36 -21 44 0 9 -5 19 -10 22 -6 3
-19 23 -29 43 l-19 37 -17 -35z"/>
<path d="M9626 6297 c-53 -91 -76 -139 -71 -148 8 -12 172 -12 179 0 5 8 -65
153 -83 173 -3 4 -15 -7 -25 -25z"/>
<path d="M9890 6313 c0 -13 -4 -23 -9 -23 -5 0 -14 -12 -20 -27 -6 -16 -30
-62 -52 -103 -23 -41 -53 -97 -67 -125 -14 -27 -32 -58 -40 -67 -8 -10 -11
-18 -7 -18 4 0 0 -9 -10 -20 -14 -15 -15 -20 -4 -20 37 -1 350 -1 396 -1 l53
1 -12 28 c-7 15 -26 50 -44 77 -18 28 -42 70 -55 95 -13 25 -38 68 -56 97 -18
29 -33 58 -33 65 0 7 -9 24 -20 38 l-20 25 0 -22z"/>
<path d="M10112 6247 c-23 -45 -42 -88 -42 -95 0 -8 26 -12 90 -12 74 0 90 3
90 15 0 17 -28 65 -45 77 -5 4 -6 8 -1 8 5 0 2 8 -7 18 -8 9 -19 29 -22 45 -4
15 -10 27 -14 27 -4 0 -26 -37 -49 -83z"/>
<path d="M9370 6293 c-8 -16 -14 -31 -14 -35 -1 -4 -8 -16 -16 -26 -24 -30
-50 -79 -50 -96 0 -9 -4 -16 -9 -16 -5 0 -14 -12 -20 -27 -6 -16 -28 -58 -49
-94 -20 -36 -45 -81 -56 -100 -10 -18 -25 -39 -32 -47 -8 -7 -14 -22 -14 -32
0 -10 -4 -21 -9 -25 -6 -3 -16 -18 -24 -33 -68 -130 -110 -209 -118 -216 -5
-6 -9 -16 -9 -23 0 -7 -11 -31 -25 -53 l-25 -40 490 0 490 0 -20 33 c-11 17
-23 39 -26 47 -13 30 -47 96 -85 165 -21 39 -43 80 -48 92 -5 11 -15 24 -20
28 -6 3 -11 15 -11 25 0 10 -6 25 -13 32 -20 21 -46 65 -99 167 -28 53 -54 98
-59 99 -5 2 -9 10 -9 19 0 16 -26 66 -50 95 -8 10 -15 22 -16 26 -1 14 -27 62
-34 62 -4 0 -13 -12 -20 -27z"/>
<path d="M8852 5809 c-17 -30 -32 -58 -32 -64 -1 -5 -7 -17 -14 -25 -33 -39
-31 -40 73 -40 l100 0 -17 32 c-9 18 -20 35 -23 38 -3 3 -17 29 -31 59 l-26
55 -30 -55z"/>
<path d="M9871 5807 c-13 -29 -35 -69 -48 -89 l-23 -38 99 0 99 0 -44 82 c-25
46 -48 86 -52 90 -4 4 -18 -16 -31 -45z"/>
<path d="M9124 5378 c-21 -32 -34 -55 -44 -78 -6 -14 -16 -37 -23 -52 -7 -16
-15 -28 -19 -28 -5 0 -8 -4 -8 -10 0 -6 42 -10 105 -10 58 0 105 3 105 8 0 4
-11 24 -25 44 -14 20 -25 44 -25 52 0 8 -5 18 -11 22 -6 3 -19 20 -29 36 -13
22 -20 26 -26 16z"/>
<path d="M9635 5371 c-3 -10 -14 -26 -25 -36 -11 -10 -20 -24 -20 -32 0 -8
-11 -31 -25 -51 -14 -20 -25 -40 -25 -44 0 -5 47 -8 105 -8 63 0 105 4 105 10
0 6 -4 10 -8 10 -5 0 -15 17 -23 37 -8 20 -19 46 -26 57 -7 12 -17 31 -22 43
-14 30 -29 36 -36 14z"/>
<path d="M9358 5338 c-37 -78 -111 -214 -124 -229 -8 -8 -14 -21 -14 -27 0 -6
-13 -31 -30 -55 -16 -25 -30 -50 -30 -56 0 -8 69 -11 230 -11 127 0 230 3 230
6 0 9 -33 67 -47 82 -7 7 -13 21 -13 29 0 9 -6 24 -14 32 -7 9 -42 71 -77 138
-40 77 -70 123 -79 123 -9 0 -23 -15 -32 -32z"/>
<path d="M9372 4898 c-7 -7 -12 -18 -12 -25 0 -7 -16 -37 -35 -67 -19 -30 -35
-58 -35 -61 0 -3 47 -5 105 -5 l104 0 -39 60 c-22 32 -40 65 -40 73 0 13 -19
37 -30 37 -3 0 -11 -5 -18 -12z"/>
<path d="M6773 3718 c-6 -7 -27 -44 -48 -83 -21 -38 -49 -89 -62 -112 l-25
-43 142 0 141 0 -47 88 c-26 48 -56 104 -66 125 -21 41 -22 42 -35 25z"/>
<path d="M7074 3703 c-10 -15 -33 -55 -50 -88 -31 -61 -87 -165 -132 -245 -35
-62 -92 -171 -92 -175 0 -2 133 -4 295 -5 162 0 295 2 295 4 0 6 -39 76 -50
91 -4 6 -24 42 -44 80 -21 39 -47 88 -60 110 -12 22 -44 81 -70 130 -72 134
-70 131 -92 98z"/>
<path d="M7359 3653 c-23 -43 -53 -97 -66 -120 -12 -23 -23 -44 -23 -47 0 -3
61 -6 135 -6 74 0 135 3 135 6 0 8 -53 107 -60 114 -3 3 -18 31 -34 62 -15 32
-31 60 -36 63 -4 3 -27 -30 -51 -72z"/>
<path d="M8009 3702 c-8 -15 -34 -63 -60 -107 -72 -127 -79 -115 77 -115 154
0 149 -5 95 89 -14 25 -37 67 -50 94 -34 66 -45 73 -62 39z"/>
<path d="M8287 3643 c-26 -49 -63 -117 -83 -153 -20 -36 -61 -112 -91 -170
-30 -58 -60 -111 -65 -118 -9 -10 47 -12 286 -12 163 1 296 5 296 9 0 11 -61
124 -78 144 -8 9 -12 17 -8 17 3 0 -4 17 -17 38 -13 20 -47 81 -76 136 -78
146 -92 170 -105 184 -10 10 -22 -5 -59 -75z"/>
<path d="M8642 3718 c-5 -7 -25 -42 -45 -78 -19 -36 -45 -84 -57 -107 -13 -24
-21 -45 -18 -48 3 -3 64 -4 136 -3 l131 3 -13 25 c-17 29 -51 94 -90 168 -16
28 -29 52 -31 52 -1 0 -7 -6 -13 -12z"/>
<path d="M7682 3678 c-12 -24 -42 -81 -68 -128 -25 -47 -58 -107 -73 -135 -15
-27 -36 -66 -47 -85 -11 -19 -44 -80 -74 -135 -29 -55 -70 -129 -90 -165 -39
-68 -112 -203 -164 -305 -17 -33 -37 -66 -43 -73 -7 -7 -13 -18 -13 -23 0 -5
242 -9 611 -9 l611 0 -20 33 c-18 30 -71 123 -137 242 -15 28 -55 102 -88 165
-33 63 -68 126 -77 140 -10 14 -26 43 -37 65 -32 66 -124 237 -148 276 -13 19
-39 67 -59 107 -20 40 -42 72 -49 72 -7 0 -23 -19 -35 -42z"/>
<path d="M7073 3128 c-18 -29 -57 -100 -99 -178 -8 -14 -14 -28 -14 -32 0 -5
61 -8 135 -8 74 0 135 2 135 4 0 2 -20 40 -45 84 -25 44 -45 83 -45 86 0 4
-11 23 -24 42 l-24 35 -19 -33z"/>
<path d="M8301 3097 c-18 -34 -49 -90 -67 -124 l-34 -63 141 0 141 0 -20 33
c-11 17 -41 74 -68 125 -27 50 -51 92 -54 92 -3 0 -20 -28 -39 -63z"/>
<path d="M7336 2471 c-36 -66 -66 -122 -66 -125 0 -4 61 -6 135 -6 74 0 135 3
135 8 0 4 -10 23 -21 42 -12 19 -37 63 -55 98 -63 118 -53 119 -128 -17z"/>
<path d="M7699 2562 c-8 -15 -16 -29 -19 -32 -3 -3 -21 -34 -39 -70 -49 -93
-84 -160 -108 -200 -11 -19 -41 -75 -66 -123 l-47 -87 295 0 294 0 -22 48
c-12 26 -63 121 -113 212 -51 91 -104 189 -119 218 -15 29 -31 54 -35 57 -4 2
-13 -8 -21 -23z"/>
<path d="M7993 2533 c-17 -32 -47 -88 -67 -125 l-36 -68 140 0 141 0 -27 48
c-15 26 -42 73 -61 105 -18 32 -33 62 -33 66 0 5 -6 14 -14 20 -11 9 -19 0
-43 -46z"/>
<path d="M7693 1983 c-6 -16 -20 -41 -29 -58 -68 -115 -84 -144 -84 -154 0 -7
45 -11 140 -11 l141 0 -42 78 c-105 194 -105 195 -126 145z"/>
</g>
</svg>
